<svg id="Line_stroke_cut_Ex" enable-background="new 0 0 512 512" height="512" viewBox="0 0 512 512" width="512" xmlns="http://www.w3.org/2000/svg"><g><path d="m136 256h16v16h-16z"/><path d="m104 280h16v16h-16z"/><path d="m88 248h16v16h-16z"/><path d="m200 280h16v16h-16z"/><path d="m88 344h112v16h-112z"/><path d="m312 288h16v24h-16z"/><path d="m280 288h16v24h-16z"/><path d="m496 224v-56c0-1.45-.394-2.873-1.14-4.116l-22.86-38.1v-37.784c0-4.418-3.582-8-8-8h-96c-4.418 0-8 3.582-8 8v37.784l-22.86 38.1c-.746 1.243-1.14 2.666-1.14 4.116v56.668c-8.26-.719-16.56.835-24 4.494v-9.162c-.018-15.457-12.543-27.982-28-28h-12v16h12c6.624.007 11.993 5.376 12 12v8.971c-8.322-4.03-17.689-5.379-26.81-3.861-17.107 3.043-31.039 16.41-38.633 36.52-2.253-1.206-4.6-2.227-7.017-3.055-2.992-17.414-19.534-29.105-36.947-26.113-3.68.632-7.221 1.904-10.462 3.757-13.653-11.357-30.442-18.285-48.131-19.861v-32.358h46c9.936-.012 17.988-8.064 18-18v-30c0-4.418-3.582-8-8-8h-54c-9.936.012-17.988 8.064-18 18v70.354c-24.82 2.168-47.529 14.845-62.4 34.834l12.8 9.612c23.87-31.816 69.012-38.257 100.827-14.388.465.349.926.704 1.383 1.064-6.422 10.639-6.107 24.033.809 34.357-3.572 6.842-5.431 14.449-5.419 22.167-.002 2.68.219 5.356.661 8h-112.661v-8c-.03-10.885 2.433-21.632 7.2-31.417l-14.4-6.992c-5.826 11.964-8.837 25.102-8.8 38.409v8h-8c-4.418 0-8 3.582-8 8v12c.018 15.457 12.543 27.982 28 28h7.056l8 16h-35.056c-4.418 0-8 3.582-8 8v20c.018 15.457 12.543 27.982 28 28h424c15.457-.018 27.982-12.543 28-28v-164h-16v48h-96.37c-.766-10.329-3.218-20.463-7.26-30-5.74-13.194-14.163-22.938-24.37-28.433v-21.567h33.008c3.65 0 6.838-2.471 7.748-6.006 3.323-12.837 16.423-20.55 29.26-17.228 8.446 2.186 15.042 8.782 17.228 17.228.91 3.535 4.098 6.006 7.748 6.006h33.008v16zm-40-128v24h-80v-24zm-328 50c0-1.105.895-2 2-2h46v22c0 1.105-.895 2-2 2h-46zm48 158c-.016-6.546 1.99-12.937 5.743-18.3 2.236-3.202 1.833-7.551-.953-10.288-6.305-6.191-6.398-16.321-.206-22.626 6.191-6.305 16.321-6.398 22.626-.206 3.065 3.01 4.791 7.125 4.79 11.421 0 .183 0 .366-.009.547-.123 3.899 2.584 7.317 6.407 8.092 17.342 3.563 28.513 20.51 24.95 37.852-.104.506-.22 1.009-.348 1.509h-62c-.669-2.615-1.005-5.303-1-8.001zm-112.845 44.422c-1.355-2.71-4.125-4.422-7.155-4.422h-12c-6.624-.007-11.993-5.376-12-12v-4h224v4c-.007 6.624-5.376 11.993-12 12h-12c-3.03 0-5.8 1.712-7.155 4.422l-13.789 27.578h-134.112zm179 11.578c3.732 5.862 8.178 11.236 13.237 16h-26.448l8-16zm237.845 44c-.007 6.624-5.376 11.993-12 12h-424c-6.624-.007-11.993-5.376-12-12v-12h448zm0-28h-126.944c14.371-13.459 25.009-34.363 29.107-57.805.823-4.696 1.373-9.436 1.648-14.195h96.189zm-168-128.253c6.114-4.507 14.688-8.614 24.416-6.884 22.618 4.023 36.35 38.175 29.984 74.577-4.057 23.209-15.242 43.2-29.921 53.479-5.4 3.782-13.86 7.931-23.49 6.217-1.942-.347-3.838-.913-5.653-1.686-2.003-.853-4.266-.853-6.269 0-1.815.774-3.711 1.34-5.653 1.686-12.449 2.215-26.04-5.085-36.7-19.322 8.255-5.101 13.282-14.11 13.286-23.814v-12c0-4.418-3.582-8-8-8h-8.661c2.402-14.327-1.81-28.971-11.456-39.833 5.181-17.477 15.5-29.061 28.109-31.3 9.517-1.691 17.925 2.2 24.008 6.586l.748.547c.811.608 1.576 1.222 2.294 1.828 2.981 2.518 7.344 2.518 10.325 0 .717-.606 1.483-1.22 2.293-1.828zm140.675-55.747c-8.849-20.255-32.442-29.502-52.697-20.653-9.24 4.037-16.616 11.413-20.653 20.653h-27.325v-21.784l20.53-34.216h86.94l20.53 34.216v21.784z"/></g></svg>