<svg viewBox="0 0 512 512.00093" xmlns="http://www.w3.org/2000/svg"><path d="m505.113281 50.488281c-5.929687-4.96875-13.90625-5.902343-20.820312-2.4375l-26.625 13.335938c-1.925781.960937-4.289063.261719-5.375-1.605469l-15.023438-25.726562c-3.902343-6.6875-11.101562-10.261719-18.78125-9.335938-7.683593.921875-13.824219 6.109375-16.03125 13.53125l-18.304687 61.636719v-80.730469c0-7.742188-4.414063-14.464844-11.515625-17.542969-7.097657-3.070312-15.011719-1.691406-20.65625 3.597657l-21.726563 20.378906c-1.570312 1.476562-4.03125 1.476562-5.605468 0l-21.726563-20.378906c-5.640625-5.2929692-13.558594-6.671876-20.652344-3.597657-7.105469 3.078125-11.519531 9.800781-11.519531 17.542969v18.832031c0 4.144531 3.359375 7.5 7.5 7.5 4.144531 0 7.5-3.355469 7.5-7.5v-18.832031c0-2.441406 1.734375-3.453125 2.480469-3.777344.742187-.320312 2.660156-.890625 4.429687.773438l21.726563 20.375c7.328125 6.875 18.804687 6.875 26.132812.003906l21.722657-20.378906c1.773437-1.664063 3.691406-1.097656 4.433593-.773438.746094.324219 2.476563 1.335938 2.476563 3.777344v225.855469h-39.269532v-141.027344c0-7.746094-4.410156-14.46875-11.515624-17.542969-7.097657-3.074218-15.011719-1.695312-20.65625 3.597656l-11.957032 11.21875v-29.257812c0-4.144531-3.359375-7.5-7.5-7.5-4.144531 0-7.5 3.355469-7.5 7.5v38.703125c-.128906-.09375-.257812-.179687-.375-.289063l-21.726562-20.375c-5.640625-5.292968-13.558594-6.671874-20.652344-3.597656-7.105469 3.074219-11.515625 9.796875-11.515625 17.542969v137.910156l-54.726563-184.257812c-2.203124-7.421875-8.34375-12.605469-16.027343-13.53125-7.6875-.929688-14.878907 2.648437-18.78125 9.335937l-15.023438 25.726563c-1.085937 1.863281-3.449219 2.570312-5.375 1.605469l-26.628906-13.335938c-6.914063-3.464844-14.890625-2.53125-20.816406 2.4375-5.9375 4.976562-8.253907 12.675781-6.046875 20.101562l25.640625 86.328126c1.179687 3.96875 5.351562 6.238281 9.324219 5.054687 3.96875-1.179687 6.234374-5.355469 5.054687-9.324219l-25.640625-86.328125c-.695312-2.34375.679688-3.8125 1.300781-4.335937.621094-.519532 2.292969-1.609375 4.46875-.523438l26.625 13.335938c8.976563 4.496094 19.980469 1.226562 25.046875-7.449219l15.023438-25.730469c1.226562-2.101562 3.226562-2.101562 4.03125-2.007812.804687.097656 2.75.574218 3.445312 2.914062l54.382813 183.101563h-87.011719l-12.003906-40.410157c-1.175782-3.96875-5.351563-6.234374-9.324219-5.054687-3.96875 1.179687-6.230469 5.355469-5.050781 9.324219l10.730468 36.140625h-1.210937c-16.929687 0-30.707031 13.773437-30.707031 30.707031v1.988281c0 13.535157 8.8125 25.046875 20.996094 29.125l10.433593 93.113281h-75.144531c-6.683594 0-13.070312 2.855469-17.519531 7.828126-4.425781 4.953124-6.542969 11.570312-5.804688 18.160156l6.519531 58.203125c1.78125 15.886719 15.222657 27.863281 31.261719 27.863281h33.976563c4.144531 0 7.5-3.355469 7.5-7.5 0-4.140625-3.355469-7.5-7.5-7.5h-33.976563c-8.195312 0-15.078125-5.960938-16.261719-13.953125h155.457032c-1.183594 7.992187-8.066406 13.953125-16.261719 13.953125h-54.78125c-4.140625 0-7.5 3.359375-7.5 7.5 0 4.144531 3.359375 7.5 7.5 7.5h54.78125c11.578125 0 21.796875-6.238281 27.257813-15.679688h252.730468c9.878906 0 18.160156-7.410156 19.261719-17.234374l19.296875-172.253907c12.183594-4.078125 20.996094-15.585937 20.996094-29.125v-1.988281c0-16.933594-13.777344-30.707031-30.707032-30.707031h-10.339843l51.804687-174.421875c2.203125-7.425782-.113281-15.125-6.046875-20.101563zm-271.152343 49.71875c.738281-.324219 2.65625-.894531 4.429687.769531l21.726563 20.378907c7.328124 6.871093 18.804687 6.871093 26.132812 0l21.722656-20.378907c1.773438-1.660156 3.691406-1.09375 4.433594-.769531.742188.320313 2.476562 1.335938 2.476562 3.777344v141.027344h-83.402343v-141.027344c0-2.441406 1.734375-3.457031 2.480469-3.777344zm-216.832032 317.566407c1.628906-1.824219 3.882813-2.828126 6.339844-2.828126h151.847656c2.457032 0 4.710938 1.003907 6.339844 2.828126 1.609375 1.796874 2.347656 4.101562 2.078125 6.492187l-.597656 5.359375h-167.484375l-.601563-5.359375c-.269531-2.390625.46875-4.695313 2.078125-6.492187zm.203125 26.851562h164.121094l-2.621094 23.417969h-158.875zm427.871094 32.792969c-.25 2.222656-2.121094 3.898437-4.355469 3.898437h-248.410156l6.203125-55.382812c.738281-6.589844-1.378906-13.210938-5.804687-18.160156-4.449219-4.976563-10.835938-7.828126-17.519532-7.828126h-61.613281l-10.253906-91.53125h360.6875zm40.199219-201.703125v1.992187c0 8.660157-7.046875 15.707031-15.707032 15.707031h-371.800781c-8.664062 0-15.707031-7.046874-15.707031-15.707031v-1.992187c0-8.660156 7.046875-15.707032 15.707031-15.707032h371.800781c8.660157 0 15.707032 7.046876 15.707032 15.707032zm11.378906-209.398438-53.074219 178.695313h-59.554687v-92.675781c.125-.289063.242187-.585938.335937-.898438l32.347657-108.917969c.695312-2.335937 2.640624-2.8125 3.445312-2.910156s2.804688-.097656 4.03125 2.007813l15.023438 25.726562c5.066406 8.675781 16.066406 11.949219 25.046874 7.453125l26.625-13.335937c2.171876-1.089844 3.847657.003906 4.46875.523437.625.523437 2 1.988281 1.304688 4.332031zm0 0"/><path d="m283.792969 317.917969c-15.828125 0-30.550781 8.164062-41.464844 22.988281-10.402344 14.132812-16.132813 32.804688-16.132813 52.570312 0 19.765626 5.730469 38.433594 16.132813 52.566407 10.914063 14.824219 25.640625 22.988281 41.464844 22.988281 15.828125 0 30.554687-8.164062 41.464843-22.988281 10.402344-14.132813 16.132813-32.800781 16.132813-52.566407 0-19.765624-5.730469-38.4375-16.132813-52.570312-10.910156-14.824219-25.636718-22.988281-41.464843-22.988281zm-42.597657 75.558593c0-.5.015626-.992187.027344-1.488281h85.144532c.007812.496094.027343.988281.027343 1.488281 0 8.105469-1.136719 15.839844-3.179687 22.914063h-78.84375c-2.042969-7.074219-3.175782-14.808594-3.175782-22.914063zm42.597657-60.558593c19.46875 0 35.917969 18.667969 40.980469 44.070312h-81.960938c5.0625-25.402343 21.511719-44.070312 40.980469-44.070312zm0 121.113281c-13.398438 0-25.367188-8.847656-33.183594-22.640625h66.367187c-7.816406 13.792969-19.785156 22.640625-33.183593 22.640625zm0 0"/><path d="m128.890625 143.035156c4.140625 0 7.5-3.355468 7.5-7.5 0-4.140625-3.359375-7.5-7.5-7.5h-.125c-4.140625 0-7.5 3.359375-7.5 7.5 0 4.144532 3.359375 7.5 7.5 7.5zm0 0"/><path d="m283.949219 172.964844h.125c4.140625 0 7.5-3.355469 7.5-7.5 0-4.144532-3.359375-7.5-7.5-7.5h-.125c-4.140625 0-7.5 3.355468-7.5 7.5 0 4.144531 3.359375 7.5 7.5 7.5zm0 0"/><path d="m426.730469 107.78125h-.125c-.019531 0-.039063 0-.058594 0-4.117187 0-7.46875 3.320312-7.5 7.441406-.03125 4.144532 3.300781 7.527344 7.441406 7.558594h.125.058594c4.113281 0 7.46875-3.316406 7.5-7.441406.03125-4.140625-3.300781-7.523438-7.441406-7.558594zm0 0"/><path d="m268.839844 198.480469h.125c4.140625 0 7.5-3.359375 7.5-7.5 0-4.144531-3.359375-7.5-7.5-7.5h-.125c-4.144532 0-7.5 3.355469-7.5 7.5 0 4.140625 3.355468 7.5 7.5 7.5zm0 0"/><path d="m152.234375 164.667969c4.144531 0 7.5-3.355469 7.5-7.496094 0-4.144531-3.355469-7.5-7.5-7.5h-.125c-4.140625 0-7.496094 3.355469-7.496094 7.5 0 4.140625 3.355469 7.496094 7.496094 7.496094zm0 0"/></svg>